# xmcd
#
# Track frame offsets: 
#        150
#        19547
#        47050
#        73896
#
# Disc length: 1270 seconds
#
# Revision: 0
# Processed by: cddbd v1.5.2PL0 Copyright (c) Steve Scherf et al.
# Submitted via: ExactAudioCopy v1.0b1
#
DISCID=2f04f404
DTITLE=Black Diamond - Go With Love CDM
DYEAR=1995
DGENRE=Eurodance
TTITLE0=Go With Love (Radio Edit)
TTITLE1=Go With Love (Dream-X)
TTITLE2=Go With Love (Extended Club Mix)
TTITLE3=Go With Love (Underground Mix)
EXTD=
EXTT0=
EXTT1=
EXTT2=
EXTT3=
PLAYORDER=
